<svg xmlns="http://www.w3.org/2000/svg" width="1024" height="1024" viewBox="0 0 1024 1024"><defs>
    <linearGradient id="tileF" x1="0" y1="0" x2="1" y2="1">
      <stop offset="0" stop-color="#fbf6ec"/>
      <stop offset="1" stop-color="#eee2cc"/>
    </linearGradient>
    <linearGradient id="topL" x1="0" y1="0" x2="1" y2="1">
      <stop offset="0" stop-color="#FF7BAC"/>
      <stop offset="0.55" stop-color="#B968E5"/>
      <stop offset="1" stop-color="#5C7CFA"/>
    </linearGradient>
    <linearGradient id="topSheen" x1="0" y1="0" x2="0.6" y2="1">
      <stop offset="0" stop-color="#ffffff" stop-opacity="0.18"/>
      <stop offset="1" stop-color="#ffffff" stop-opacity="0"/>
    </linearGradient>
    <radialGradient id="accentF" cx="0.45" cy="0.40" r="0.55">
      <stop offset="0" stop-color="#FFF3A8"/>
      <stop offset="1" stop-color="#FFA63A"/>
    </radialGradient>
    <filter id="dsTop" x="-30%" y="-30%" width="160%" height="160%">
      <feDropShadow dx="0" dy="16" stdDeviation="20" flood-color="#2a1850" flood-opacity="0.24"/>
    </filter>
    <filter id="dsBack" x="-30%" y="-30%" width="160%" height="160%">
      <feDropShadow dx="0" dy="6" stdDeviation="9" flood-color="#3a2d20" flood-opacity="0.16"/>
    </filter></defs>
    <rect x="100" y="100" width="824" height="824" rx="185.4" ry="185.4" fill="url(#tileF)"/>
    <g transform="rotate(-10 462 484)" filter="url(#dsBack)">
      <rect x="192" y="154" width="540" height="660" rx="40" fill="#ffffff"/>
      <rect x="262" y="224" width="91" height="94.4" rx="10" fill="#FF6B6B" opacity="0.92"/>
      <line x1="359" y1="218" x2="359" y2="750" stroke="#c8bcab" stroke-width="3" stroke-linecap="round"/><line x1="462" y1="218" x2="462" y2="750" stroke="#c8bcab" stroke-width="3" stroke-linecap="round"/><line x1="565" y1="218" x2="565" y2="750" stroke="#c8bcab" stroke-width="3" stroke-linecap="round"/><line x1="256" y1="324.4" x2="668" y2="324.4" stroke="#c8bcab" stroke-width="3" stroke-linecap="round"/><line x1="256" y1="430.8" x2="668" y2="430.8" stroke="#c8bcab" stroke-width="3" stroke-linecap="round"/><line x1="256" y1="537.2" x2="668" y2="537.2" stroke="#c8bcab" stroke-width="3" stroke-linecap="round"/><line x1="256" y1="643.6" x2="668" y2="643.6" stroke="#c8bcab" stroke-width="3" stroke-linecap="round"/>
    </g>
    <g transform="rotate(5 540 524)" filter="url(#dsTop)">
      <rect x="270" y="194" width="540" height="660" rx="40" fill="url(#topL)"/>
      <rect x="270" y="194" width="540" height="660" rx="40" fill="url(#topSheen)"/>
      <circle cx="658" cy="328" r="54" fill="url(#accentF)"/>
    </g></svg>